Coordinates
nRows=11
nColumns=24

# SIMM Motion File Header:
name Coordinates
datacolumns 24
datarows 11
otherdata 1
range 0.55367000000000000000 0.56367000000000000000

Units are S.I. units (second, meters, Newtons, ...)
Angles are in degrees.

endheader
time	pelvis_tx	pelvis_ty	pelvis_tz	pelvis_tilt	pelvis_list	pelvis_rotation	hip_flexion_r	hip_adduction_r	hip_rotation_r	knee_angle_r	ankle_angle_r	subtalar_angle_r	mtp_angle_r	hip_flexion_l	hip_adduction_l	hip_rotation_l	knee_angle_l	ankle_angle_l	subtalar_angle_l	mtp_angle_l	lumbar_extension	lumbar_bending	lumbar_rotation
      0.55367000000000000000	      0.93503569319933166000	      0.89330546215559559000	     -0.17904958467515181000	      0.57195135916720574000	     -0.33483786821976080000	     -0.34879883579136750000	     -4.13609230570332990000	      4.68970857296025740000	     -2.72618019813640710000	     -7.56595909572126320000	     10.80197249764737900000	     -0.00000000000002768478	     -0.00000000000011898132	     24.01151360379118000000	     -3.27415844222906880000	     -0.33954023392427352000	    -33.58691386611902600000	      6.33681832358214160000	     -0.00000000000000647354	     -0.00000000000000121633	     -8.55009265363455030000	      1.48587013318709200000	      2.96254657674226380000
      0.55467000000000000000	      0.93560787352476238000	      0.89326383485587368000	     -0.17899424350871684000	      0.58129675215185084000	     -0.34085818464532069000	     -0.36044092058466032000	     -4.20245004442298060000	      4.69820073740392720000	     -2.73337679906639290000	     -7.53666154898515120000	     10.81822817055904000000	     -0.00000000000002830809	     -0.00000000000011948404	     24.00390639829410200000	     -3.26633120848932680000	     -0.31266271425583286000	    -33.37338652980128000000	      6.29280147130543900000	     -0.00000000000000651406	     -0.00000000000000121156	     -8.56559958568475820000	      1.48655576612274890000	      2.97962866253122670000
      0.55567000000000000000	      0.93618036168439467000	      0.89322174909720553000	     -0.17893882416489537000	      0.59098417131351899000	     -0.34719716762781855000	     -0.37227102763821662000	     -4.26911793930409720000	      4.70699667696937850000	     -2.74027281882281710000	     -7.50749667342578770000	     10.83454982797403900000	     -0.00000000000002898426	     -0.00000000000011994930	     23.99559798372509800000	     -3.25906839419103370000	     -0.28601131740914526000	    -33.15984841940866800000	      6.24876445416580580000	     -0.00000000000000655592	     -0.00000000000000120573	     -8.58152637555557260000	      1.48752372604806360000	      2.99698604117361800000
      0.55667000000000000000	      0.93675315838946971000	      0.89317920261199013000	     -0.17888333036851567000	      0.60101171771081674000	     -0.35385370332058180000	     -0.38428461472290631000	     -4.33609370907384320000	      4.71609443673511830000	     -2.74687126404967200000	     -7.47846721034461390000	     10.85094011062031600000	     -0.00000000000002962712	     -0.00000000000012039597	     23.98659111032886000000	     -3.25236789044992620000	     -0.25958577446734143000	    -32.94630461189793600000	      6.20471231044298310000	     -0.00000000000000659882	     -0.00000000000000120191	     -8.59787286198594810000	      1.48877284970525080000	      3.01461384934209060000
      0.55767000000000000000	      0.93732626421602483000	      0.89313619287972423000	     -0.17882776614810220000	      0.61137725708583712000	     -0.36082653399289094000	     -0.39647695654760456000	     -4.40337475015662960000	      4.72549191199798190000	     -2.75317555056141710000	     -7.44957605772748810000	     10.86740174282159400000	     -0.00000000000003026785	     -0.00000000000012079503	     23.97688887589884400000	     -3.24622729934928070000	     -0.23338551416589448000	    -32.73276035650146600000	      6.16064962666548870000	     -0.00000000000000664198	     -0.00000000000000119717	     -8.61463863606845410000	      1.49030184450393930000	      3.03250692615495550000
      0.55867000000000000000	      0.93789967960764153000	      0.89309271712654481000	     -0.17877213584204238000	      0.62207841470179381000	     -0.36811425408123588000	     -0.40884315105745744000	     -4.47095812716436210000	      4.73518684520728960000	     -2.75918949374427540000	     -7.42082627483908120000	     10.88393753153695600000	     -0.00000000000003088599	     -0.00000000000012120307	     23.96649473579507400000	     -3.24064393030245060000	     -0.20740966572800171000	    -32.51922108501405300000	      6.11658054571557930000	     -0.00000000000000668286	     -0.00000000000000119390	     -8.63182303287187120000	      1.49210928667816290000	      3.05065981879126810000
      0.55967000000000000000	      0.93847340487845243000	      0.89304877232515889000	     -0.17871644410385690000	      0.63311257048354241000	     -0.37571530631805211000	     -0.42137812608702657000	     -4.53884056382071320000	      4.74517682309790260000	     -2.76491729754431330000	     -7.39222108654349610000	     10.90055036644590200000	     -0.00000000000003151186	     -0.00000000000012156319	     23.95541251243715300000	     -3.23561479670633690000	     -0.18165706213040181000	    -32.30569242188591500000	      6.07250877590974090000	     -0.00000000000000671917	     -0.00000000000000119200	     -8.64942512337322890000	      1.49419361930906210000	      3.06906678921323150000
      0.56067000000000000000	      0.93904744021692343000	      0.89300435519569954000	     -0.17866069590424605000	      0.64447685516671205000	     -0.38362797799330034000	     -0.43407664730819234000	     -4.60701843543636610000	      4.75545927417405420000	     -2.77036354097801230000	     -7.36376388660371360000	     10.91724321776285900000	     -0.00000000000003213613	     -0.00000000000012190224	     23.94364640296043600000	     -3.23113661347066520000	     -0.15612624496155711000	    -32.09218019363795800000	      6.02843760353689270000	     -0.00000000000000675505	     -0.00000000000000119034	     -8.66744370743601070000	      1.49655314969296580000	      3.08772182482206900000
      0.56167000000000000000	      0.93962178569014942000	      0.89295946220700451000	     -0.17860489653056746000	      0.65616814721385508000	     -0.39185039727858761000	     -0.44693332717631012000	     -4.67548776256965230000	      4.76603146633378310000	     -2.77553316338161830000	     -7.33545824023436490000	     10.93401913083074500000	     -0.00000000000003275903	     -0.00000000000012225575	     23.93120098545657700000	     -3.22720579515185110000	     -0.13081547051004627000	    -31.87869043775240000000	      5.98436990804346360000	     -0.00000000000000679224	     -0.00000000000000118692	     -8.68587730758740410000	      1.49918604615631180000	      3.10661865212381640000
      0.56267000000000000000	      0.94019644124824531000	      0.89291408957800777000	     -0.17854905158574841000	      0.66818306989788590000	     -0.40038052960738824000	     -0.45994263406056735000	     -4.74424420491970360000	      4.77689050461471080000	     -2.78043144869024590000	     -7.30730788651829850000	     10.95088122177728700000	     -0.00000000000003335444	     -0.00000000000012255591	     23.91808122492805200000	     -3.22381845424057810000	     -0.10572271607702639000	    -31.66522941146017100000	      5.94030817773624790000	     -0.00000000000000683000	     -0.00000000000000118393	     -8.70472416296754050000	      1.50209033480757070000	      3.12575075097867040000
      0.56367000000000000000	      0.94077140672874948000	      0.89286823327917408000	     -0.17849316698712756000	      0.68051798839182231000	     -0.40921617406687066000	     -0.47309890137671451000	     -4.81328305521578240000	      4.78803332896156510000	     -2.78506400954871000000	     -7.27931674081219700000	     10.96783267353312400000	     -0.00000000000003395259	     -0.00000000000012280212	     23.90429247924463900000	     -3.22097039945913060000	     -0.08084568629356858600	    -31.45180360052443200000	      5.89625452549602080000	     -0.00000000000000686592	     -0.00000000000000118203	     -8.72398222327864300000	      1.50526389629487630000	      3.14511136886216260000
